# xmcd CD database file
#
# Track frame offsets:
#	150
#	17044
#	31437
#	42699
#	57478
#	76065
#	90855
#	110335
#	133359
#	150037
#	173250
#	188051
#	204983
#
# Disc length: 2919 seconds
#
# Revision: 0
# Processed by: cddbd v1.5.2PL0 Copyright (c) Steve Scherf et al.
# Submitted via: CDex 1.70beta2
#
DISCID=960b650d
DTITLE=KLAXONS - Surfing the Void
DYEAR=2010
DGENRE=New Age
TTITLE0=Echoes
TTITLE1=The Same Space
TTITLE2=Surfing the Void
TTITLE3=Valley Of The Calm Trees
TTITLE4=Venusia
TTITLE5=Extra Astronomical
TTITLE6=Twin Flames
TTITLE7=Flashover
TTITLE8=Future Memories
TTITLE9=Cypher Speed
TTITLE10=Birdman
TTITLE11=Hello 23
TTITLE12=Sorcerer City
EXTD=YEAR: 2010
EXTT0=
EXTT1=
EXTT2=
EXTT3=
EXTT4=
EXTT5=
EXTT6=
EXTT7=
EXTT8=
EXTT9=
EXTT10=
EXTT11=
EXTT12=
PLAYORDER=
